<?xml version="1.0" encoding="UTF-8"?>
<!DOCTYPE svg PUBLIC "-//W3C//DTD SVG 1.1//EN" "http://www.w3.org/Graphics/SVG/1.1/DTD/svg11.dtd">
<svg xmlns="http://www.w3.org/2000/svg" version="1.1" width="461px" height="419px" style="shape-rendering:geometricPrecision; text-rendering:geometricPrecision; image-rendering:optimizeQuality; fill-rule:evenodd; clip-rule:evenodd" xmlns:xlink="http://www.w3.org/1999/xlink">
<g><path style="opacity:0.858" fill="#fe385b" d="M 169.5,21.5 C 170.675,21.281 171.675,21.6143 172.5,22.5C 138.896,51.6 111.396,85.6 90,124.5C 83.2905,136.586 77.1239,148.919 71.5,161.5C 59.4492,136.389 45.6158,112.389 30,89.5C 15.4959,111.625 16.1625,133.292 32,154.5C 48.8732,171.477 68.7065,175.977 91.5,168C 115.577,155.345 125.411,135.512 121,108.5C 119.507,102.846 117.341,97.513 114.5,92.5C 116.13,89.8572 117.797,87.1905 119.5,84.5C 120.002,83.479 120.668,83.3123 121.5,84C 136.124,106.062 137.29,128.896 125,152.5C 106.128,179.793 80.6279,188.626 48.5,179C 17.7184,164.613 4.88506,140.447 10,106.5C 22.3046,69.5636 47.8046,54.0636 86.5,60C 93.6713,61.9197 100.338,64.9197 106.5,69C 108.007,69.8373 108.507,71.0039 108,72.5C 105.95,74.8878 103.616,76.8878 101,78.5C 80.7366,66.3584 60.57,66.5251 40.5,79C 36.8333,81.3333 33.8333,84.3333 31.5,88C 44.3473,101.014 57.3473,113.847 70.5,126.5C 87.839,98.7113 108.839,73.878 133.5,52C 145.691,41.9687 157.691,31.802 169.5,21.5 Z"/></g>
<g><path style="opacity:0.966" fill="#fe385b" d="M 147.5,65.5 C 167.169,65.3334 186.836,65.5 206.5,66C 232.663,72.1318 244.163,88.6318 241,115.5C 236.729,133.438 225.562,144.271 207.5,148C 193.837,148.5 180.171,148.667 166.5,148.5C 166.667,160.505 166.5,172.505 166,184.5C 162.886,194.142 156.386,197.642 146.5,195C 142.183,192.685 139.35,189.185 138,184.5C 137.333,148.5 137.333,112.5 138,76.5C 138.904,70.7695 142.071,67.1029 147.5,65.5 Z M 166.5,90.5 C 177.838,90.3335 189.172,90.5001 200.5,91C 210.919,95.6763 214.419,103.51 211,114.5C 209.167,117.667 206.667,120.167 203.5,122C 191.242,123.439 178.909,123.939 166.5,123.5C 166.5,112.5 166.5,101.5 166.5,90.5 Z"/></g>
<g><path style="opacity:0.963" fill="#fe385b" d="M 287.5,98.5 C 302.232,96.6187 315.898,99.452 328.5,107C 333.337,111.502 336.503,117.002 338,123.5C 338.667,144.833 338.667,166.167 338,187.5C 334.628,194.433 329.128,196.933 321.5,195C 317.333,193.5 314.5,190.667 313,186.5C 302.455,195.512 290.288,198.679 276.5,196C 252.989,187.486 246.156,171.653 256,148.5C 266.343,137.032 279.176,132.866 294.5,136C 301.496,137.082 307.663,139.915 313,144.5C 315.77,126.269 307.937,118.102 289.5,120C 282.07,121.42 275.07,123.92 268.5,127.5C 258.366,124.562 256.032,118.562 261.5,109.5C 269.538,104.142 278.205,100.475 287.5,98.5 Z M 290.5,152.5 C 299.359,151.626 306.859,154.293 313,160.5C 315.64,170.535 311.807,176.368 301.5,178C 292.606,180.258 285.106,178.092 279,171.5C 276.738,166.143 277.571,161.31 281.5,157C 284.437,155.199 287.437,153.699 290.5,152.5 Z"/></g>
<g><path style="opacity:0.959" fill="#fe385b" d="M 365.5,99.5 C 370.734,98.8346 375.568,99.8346 380,102.5C 388.205,122.788 396.205,143.121 404,163.5C 411.137,143.756 418.47,124.089 426,104.5C 431.779,98.8364 438.279,98.0031 445.5,102C 449.755,107.28 450.588,113.114 448,119.5C 434.862,151.914 421.529,184.247 408,216.5C 398.678,229.169 386.178,234.002 370.5,231C 363.438,227.489 361.272,221.989 364,214.5C 365.167,213.333 366.333,212.167 367.5,211C 373.238,209.516 378.905,207.849 384.5,206C 386.684,202.46 388.684,198.793 390.5,195C 379.476,168.264 368.642,141.43 358,114.5C 357.316,107.869 359.816,102.869 365.5,99.5 Z"/></g>
<g><path style="opacity:0.939" fill="#fe385b" d="M 269.5,212.5 C 285.303,211.13 291.803,218.13 289,233.5C 284.207,241.543 277.373,244.043 268.5,241C 260.461,236.217 257.961,229.383 261,220.5C 263.074,216.923 265.907,214.256 269.5,212.5 Z"/></g>
<g><path style="opacity:0.946" fill="#fe385b" d="M 325.5,219.5 C 333.443,218.712 338.61,222.046 341,229.5C 341.667,266.833 341.667,304.167 341,341.5C 336.366,351.71 329.2,353.876 319.5,348C 317.898,346.065 316.731,343.899 316,341.5C 315.333,304.167 315.333,266.833 316,229.5C 317.35,224.319 320.517,220.986 325.5,219.5 Z"/></g>
<g><path style="opacity:0.972" fill="#fe385b" d="M 19.5,221.5 C 38.5029,221.333 57.5029,221.5 76.5,222C 103.627,226.788 121.127,242.288 129,268.5C 136.296,304.044 123.796,329.544 91.5,345C 86.3233,346.961 80.99,348.294 75.5,349C 57.1667,349.667 38.8333,349.667 20.5,349C 15.9291,347.427 13.0957,344.26 12,339.5C 11.3333,303.167 11.3333,266.833 12,230.5C 13.6416,226.7 16.1416,223.7 19.5,221.5 Z M 39.5,246.5 C 50.1719,246.333 60.8385,246.5 71.5,247C 91.1522,251.991 101.152,264.658 101.5,285C 100.741,305.745 90.408,318.745 70.5,324C 60.172,324.5 49.8387,324.666 39.5,324.5C 39.5,298.5 39.5,272.5 39.5,246.5 Z"/></g>
<g><path style="opacity:0.953" fill="#fe385b" d="M 189.5,253.5 C 202.232,252.943 213.898,256.11 224.5,263C 229.956,268.747 233.123,275.581 234,283.5C 234.667,302.833 234.667,322.167 234,341.5C 230.652,350.225 224.485,353.059 215.5,350C 212.305,348.305 209.972,345.805 208.5,342.5C 192.928,353.985 176.595,355.152 159.5,346C 146.456,333.792 143.956,319.625 152,303.5C 159.553,294.974 169.053,290.641 180.5,290.5C 190.667,290.285 199.667,293.285 207.5,299.5C 209.127,293.274 208.627,287.274 206,281.5C 204.269,279.383 202.102,277.883 199.5,277C 193.585,275.473 187.585,275.139 181.5,276C 175.702,278.318 169.869,280.485 164,282.5C 155.277,281.084 152.277,276.084 155,267.5C 164.937,258.803 176.437,254.136 189.5,253.5 Z M 183.5,308.5 C 192.952,306.738 201.119,309.071 208,315.5C 211.014,326.49 206.847,332.657 195.5,334C 186.347,335.844 179.181,333.011 174,325.5C 172.513,317.134 175.68,311.467 183.5,308.5 Z"/></g>
<g><path style="opacity:0.975" fill="#fe385b" d="M 272.5,254.5 C 279.026,254.178 283.86,256.845 287,262.5C 287.667,289.5 287.667,316.5 287,343.5C 282.157,351.226 275.657,353.059 267.5,349C 265.622,347.457 264.122,345.624 263,343.5C 262.333,316.5 262.333,289.5 263,262.5C 265.161,258.495 268.328,255.829 272.5,254.5 Z"/></g>
<g><path style="opacity:0.957" fill="#fe385b" d="M 370.5,254.5 C 376.19,254.034 380.69,256.034 384,260.5C 391.53,280.089 398.863,299.756 406,319.5C 413.667,299.5 421.333,279.5 429,259.5C 435.977,252.959 442.977,252.959 450,259.5C 451.336,262.009 452.17,264.676 452.5,267.5C 439.024,302.757 424.857,337.757 410,372.5C 402.631,382.518 392.631,387.518 380,387.5C 368.905,387.74 364.238,382.407 366,371.5C 367.122,369.376 368.622,367.543 370.5,366C 375.967,365.151 381.301,363.818 386.5,362C 389.155,358.524 391.155,354.69 392.5,350.5C 382.099,324.132 371.599,297.799 361,271.5C 359.53,263.097 362.696,257.431 370.5,254.5 Z"/></g>
</svg>
