<?xml version="1.0" standalone="no"?>
<!DOCTYPE svg PUBLIC "-//W3C//DTD SVG 20010904//EN"
 "http://www.w3.org/TR/2001/REC-SVG-20010904/DTD/svg10.dtd">
<svg version="1.0" xmlns="http://www.w3.org/2000/svg"
 width="186.000000pt" height="45.000000pt" viewBox="0 0 186.000000 45.000000"
 preserveAspectRatio="xMidYMid meet">

<g transform="translate(0.000000,45.000000) scale(0.100000,-0.100000)"
fill="#000000" stroke="none">
<path d="M384 377 c-38 -40 -85 -96 -104 -125 l-34 -53 -54 53 c-58 56 -58 55
11 -65 l45 -78 42 78 c48 90 111 186 148 225 14 15 23 30 20 33 -3 3 -36 -27
-74 -68z"/>
<path d="M176 415 c-44 -15 -91 -57 -114 -100 -33 -65 -10 -188 44 -236 94
-83 236 -64 309 39 26 38 30 52 30 105 -1 67 -27 137 -40 105 -4 -9 -2 -25 4
-37 6 -11 11 -40 11 -66 0 -143 -168 -227 -278 -138 -72 58 -90 139 -51 220
38 79 154 119 231 79 25 -13 38 -12 38 5 0 12 -79 39 -113 39 -17 -1 -49 -7
-71 -15z"/>
</g>
</svg>
